HIERARCHY
ROOT pelvis
{
  OFFSET 0 100 0
  CHANNELS 6 Xposition Yposition Zposition Zrotation Xrotation Yrotation
  JOINT pelvis_right_femur
  {
    OFFSET -10.78128 -3.44521 -0.5502486
    CHANNELS 3 Zrotation Xrotation Yrotation
    JOINT right_femur_tibia
    {
      OFFSET -0.8047443 -44.0398 -0.1307829
      CHANNELS 3 Zrotation Xrotation Yrotation
      JOINT right_tibia_foot
      {
        OFFSET 3.006224 -47.83518 -5
        CHANNELS 3 Zrotation Xrotation Yrotation
        End Site
        {
          OFFSET 0 -5 15
        }
      }
    }
  }
  JOINT pelvis_left_femur
  {
    OFFSET 10.78128 -3.44521 -0.5502486
    CHANNELS 3 Zrotation Xrotation Yrotation
    JOINT left_femur_tibia
    {
      OFFSET 0.8047443 -44.0398 -0.1307829
      CHANNELS 3 Zrotation Xrotation Yrotation
      JOINT left_tibia_foot
      {
        OFFSET -4.370144 -48.10324 -4.275266
        CHANNELS 3 Zrotation Xrotation Yrotation
        End Site
        {
          OFFSET 0 -5 15
        }
      }
    }
  }
  JOINT pelvis_spine1
  {
    OFFSET 0 6.468898 -3.129235
    CHANNELS 3 Zrotation Xrotation Yrotation
    JOINT spine1
    {
      OFFSET 0 23.15396 4.99043
      CHANNELS 3 Zrotation Xrotation Yrotation
      JOINT spine2
      {
        OFFSET 0 20.79997 -5.064912
        CHANNELS 3 Zrotation Xrotation Yrotation
        JOINT neck
        {
          OFFSET 0 14.38658 9.616178
          CHANNELS 3 Zrotation Xrotation Yrotation
          End Site
          {
            OFFSET 0 20 0
          }
        }
      }
      JOINT right_manubrium
      {
        OFFSET -5.722621 16.35077 3.967754
        CHANNELS 3 Zrotation Xrotation Yrotation
        JOINT right_clavicle
        {
          OFFSET -13.16364 1.694482 -4.693211
          CHANNELS 3 Zrotation Xrotation Yrotation
          JOINT right_humerus
          {
            OFFSET -28.5034 -0.3100689 -2.792744
            CHANNELS 3 Zrotation Xrotation Yrotation
            JOINT right_radius
            {
              OFFSET -25.15693 0.02248979 -1.271978
              CHANNELS 3 Zrotation Xrotation Yrotation
              End Site
              {
                OFFSET -15 0 0
              }
            }
          }
        }
      }
      JOINT left_manubrium
      {
        OFFSET 5.722621 16.35077 3.967754
        CHANNELS 3 Zrotation Xrotation Yrotation
        JOINT left_clavicle
        {
          OFFSET 13.16364 1.694482 -4.693211
          CHANNELS 3 Zrotation Xrotation Yrotation
          JOINT left_humerus
          {
            OFFSET 29.39168 -1.063119 -2.237045
            CHANNELS 3 Zrotation Xrotation Yrotation
            JOINT left_radius
            {
              OFFSET 24.59957 -0.9528479 0.9047498
              CHANNELS 3 Zrotation Xrotation Yrotation
              End Site
              {
                OFFSET 15 -0 -0
              }
            }
          }
        }
      }
    }
  }
}
MOTION
Frames: 9
Frame Time: 0.0416666666667
-91.43222 122.3551 3042.819 -2.707903 -6.757115 -18.83927 5.452254 11.10161 3.644924 -0 22.59115 -0 -8.113067 -14.30719 -2.512321 4.976492 -18.23659 0.6737236 -0 9.98683 -0 4.853866 2.519997 8.783037 0.3938415 -6.170681 9.774192 2.157316 18.82962 -9.0876 -0.8227505 15.94752 0.5699031 1.185614 -16.485 -0.2829359 1.895872 -34.27592 15.24707 86.29406 13.65762 -12.40891 -0 0 34.61477 -17.66467 13.45765 10.67051 1.033778 -26.41053 -9.960245 -92.69418 5.254188 39.83137 0 0 -10.3737 7.241118 7.569342 2.477302
-91.97294 122.3173 3049.036 -2.70927 -6.756569 -18.85089 5.452254 11.10161 3.644924 -0 22.59115 -0 -8.113067 -14.30719 -2.512321 4.976492 -18.23659 0.6737236 -0 9.98683 -0 4.853866 2.519997 8.783037 0.3938415 -6.170681 9.774192 2.157316 18.82962 -9.0876 -0.8227505 15.94752 0.5699031 1.185614 -16.485 -0.2829359 1.895872 -34.27592 15.24707 86.29406 13.65762 -12.40891 -0 0 34.61477 -17.66467 13.45765 10.67051 1.033778 -26.41053 -9.960245 -92.69418 5.254188 39.83137 0 0 -10.3737 7.241118 7.569342 2.477302
-92.51493 122.2795 3055.252 -2.710637 -6.756023 -18.86251 5.452254 11.10161 3.644924 -0 22.59115 -0 -8.113067 -14.30719 -2.512321 4.976492 -18.23659 0.6737236 -0 9.98683 -0 4.853866 2.519997 8.783037 0.3938415 -6.170681 9.774192 2.157316 18.82962 -9.0876 -0.8227505 15.94752 0.5699031 1.185614 -16.485 -0.2829359 1.895872 -34.27592 15.24707 86.29406 13.65762 -12.40891 -0 0 34.61477 -17.66467 13.45765 10.67051 1.033778 -26.41053 -9.960245 -92.69418 5.254188 39.83137 0 0 -10.3737 7.241118 7.569342 2.477302
-93.05816 122.2418 3061.468 -2.712004 -6.755476 -18.87413 5.452254 11.10161 3.644924 -0 22.59115 -0 -8.113067 -14.30719 -2.512321 4.976492 -18.23659 0.6737236 -0 9.98683 -0 4.853866 2.519997 8.783037 0.3938415 -6.170681 9.774192 2.157316 18.82962 -9.0876 -0.8227505 15.94752 0.5699031 1.185614 -16.485 -0.2829359 1.895872 -34.27592 15.24707 86.29406 13.65762 -12.40891 -0 0 34.61477 -17.66467 13.45765 10.67051 1.033778 -26.41053 -9.960245 -92.69418 5.254188 39.83137 0 0 -10.3737 7.241118 7.569342 2.477302
-93.60265 122.204 3067.684 -2.713371 -6.75493 -18.88575 5.452254 11.10161 3.644924 -0 22.59115 -0 -8.113067 -14.30719 -2.512321 4.976492 -18.23659 0.6737236 -0 9.98683 -0 4.853866 2.519997 8.783037 0.3938415 -6.170681 9.774192 2.157316 18.82962 -9.0876 -0.8227505 15.94752 0.5699031 1.185614 -16.485 -0.2829359 1.895872 -34.27592 15.24707 86.29406 13.65762 -12.40891 -0 0 34.61477 -17.66467 13.45765 10.67051 1.033778 -26.41053 -9.960245 -92.69418 5.254188 39.83137 0 0 -10.3737 7.241118 7.569342 2.477302
-94.14839 122.1662 3073.9 -2.714738 -6.754383 -18.89737 5.452254 11.10161 3.644924 -0 22.59115 -0 -8.113067 -14.30719 -2.512321 4.976492 -18.23659 0.6737236 -0 9.98683 -0 4.853866 2.519997 8.783037 0.3938415 -6.170681 9.774192 2.157316 18.82962 -9.0876 -0.8227505 15.94752 0.5699031 1.185614 -16.485 -0.2829359 1.895872 -34.27592 15.24707 86.29406 13.65762 -12.40891 -0 0 34.61477 -17.66467 13.45765 10.67051 1.033778 -26.41053 -9.960245 -92.69418 5.254188 39.83137 0 0 -10.3737 7.241118 7.569342 2.477302
-94.69539 122.1285 3080.116 -2.716104 -6.753835 -18.90899 5.452254 11.10161 3.644924 -0 22.59115 -0 -8.113067 -14.30719 -2.512321 4.976492 -18.23659 0.6737236 -0 9.98683 -0 4.853866 2.519997 8.783037 0.3938415 -6.170681 9.774192 2.157316 18.82962 -9.0876 -0.8227505 15.94752 0.5699031 1.185614 -16.485 -0.2829359 1.895872 -34.27592 15.24707 86.29406 13.65762 -12.40891 -0 0 34.61477 -17.66467 13.45765 10.67051 1.033778 -26.41053 -9.960245 -92.69418 5.254188 39.83137 0 0 -10.3737 7.241118 7.569342 2.477302
-95.24364 122.0907 3086.331 -2.717471 -6.753288 -18.92061 5.452254 11.10161 3.644924 -0 22.59115 -0 -8.113067 -14.30719 -2.512321 4.976492 -18.23659 0.6737236 -0 9.98683 -0 4.853866 2.519997 8.783037 0.3938415 -6.170681 9.774192 2.157316 18.82962 -9.0876 -0.8227505 15.94752 0.5699031 1.185614 -16.485 -0.2829359 1.895872 -34.27592 15.24707 86.29406 13.65762 -12.40891 -0 0 34.61477 -17.66467 13.45765 10.67051 1.033778 -26.41053 -9.960245 -92.69418 5.254188 39.83137 0 0 -10.3737 7.241118 7.569342 2.477302
-95.79314 122.0529 3092.547 -2.718837 -6.75274 -18.93223 5.452254 11.10161 3.644924 -0 22.59115 -0 -8.113067 -14.30719 -2.512321 4.976492 -18.23659 0.6737236 -0 9.98683 -0 4.853866 2.519997 8.783037 0.3938415 -6.170681 9.774192 2.157316 18.82962 -9.0876 -0.8227505 15.94752 0.5699031 1.185614 -16.485 -0.2829359 1.895872 -34.27592 15.24707 86.29406 13.65762 -12.40891 -0 0 34.61477 -17.66467 13.45765 10.67051 1.033778 -26.41053 -9.960245 -92.69418 5.254188 39.83137 0 0 -10.3737 7.241118 7.569342 2.477302
